# xmcd CD database file
#
# Track frame offsets:
#	150
#	15269
#	30676
#	43698
#	56835
#	71575
#	84490
#	98084
#	111351
#	126357
#	138903
#	157021
#	176935
#	191302
#	206797
#	220141
#	235459
#	247287
#	260592
#	271423
#
# Disc length: 3868 seconds
#
# Revision: 2
# Processed by: cddbd v1.5.2PL0 Copyright (c) Steve Scherf et al.
# Submitted via: CDex 1.51
#
DISCID=300f1a14
DTITLE=Johnny Cash - Johnny Cash and Friends
DYEAR=2002
DGENRE=Country
TTITLE0=The Night Hank Williams Came To Town
TTITLE1=Doin' My Time  (Featuring Marty Stuart)
TTITLE2=Wanted Man
TTITLE3=Don't Take Your Guns To Town
TTITLE4=The Last Of The Drifters  (Featuring Tom T. Hall)
TTITLE5=That Old Wheel  (Featuring Hank Williams Jr.)
TTITLE6=As Long As I Live  (Featuring Emmylou Harris, Jessi Colter, Roy Acuff, Waylon Jennings)
TTITLE7=Sweeter Than The Flowers  (Featuring Emmylou Harris, Jessi Colter, Roy Acuff, Waylon Jennings)
TTITLE8=A Backstage Pass
TTITLE9=Ballad Of A Teenage Queen
TTITLE10=A Croft In Clachan - The Ballad Of Rob Macdunn  (Featuring Glen Campbell)
TTITLE11=Let Him Roll
TTITLE12=I'll Go Soomewhere And Sing My Songs Again  (Featuring Tom T. Hall)
TTITLE13=Call Me The Breeze  (Featuring John Carter Cash)
TTITLE14=Where Did We Go Right  (Featuring June Carter and The Carter Family)
TTITLE15=The Hobo Song
TTITLE16=I'm An Easy Rider
TTITLE17=Water From The Wells Of Home  (Featuring John Carter Cash)
TTITLE18=Angel And The Badman
TTITLE19=Harley
EXTD=(c)2002 Spectrum Music/Universal Music Operatoins UK\nupc 731454498227 YEAR: 2002
EXTT0=
EXTT1=
EXTT2=
EXTT3=
EXTT4=
EXTT5=
EXTT6=
EXTT7=
EXTT8=
EXTT9=
EXTT10=
EXTT11=
EXTT12=
EXTT13=
EXTT14=
EXTT15=
EXTT16=
EXTT17=
EXTT18=
EXTT19=
PLAYORDER=
